<svg xmlns="http://www.w3.org/2000/svg"><symbol id="ico-envelope-w" viewBox="0 0 382.1 382.1"><path fill="#FFF" d="M336.8 45.9H45.4C20.3 45.9 0 65.5 0 89.5v203.1c0 24 20.3 43.6 45.4 43.6h291.4c25 0 45.4-19.5 45.4-43.6V89.5c-.1-24-20.4-43.6-45.4-43.6zm0 251.8H45.4c-3.7 0-6.9-2.4-6.9-5.1V116.4l131.8 111.3c2.7 2.3 6.1 3.5 9.7 3.5h22.3c3.5 0 7-1.3 9.7-3.5l131.8-111.3v176.3c-.1 2.6-3.4 5-7 5zM191.1 193L62.9 84.4h256.4L191.1 193z"/></symbol><symbol id="ico-envelope" viewBox="0 0 382.1 382.1"><path d="M336.8 45.9H45.4C20.3 45.9 0 65.5 0 89.5v203.1c0 24 20.3 43.6 45.4 43.6h291.4c25 0 45.4-19.5 45.4-43.6V89.5c-.1-24-20.4-43.6-45.4-43.6zm0 251.8H45.4c-3.7 0-6.9-2.4-6.9-5.1V116.4l131.8 111.3c2.7 2.3 6.1 3.5 9.7 3.5h22.3c3.5 0 7-1.3 9.7-3.5l131.8-111.3v176.3c-.1 2.6-3.4 5-7 5zM191.1 193L62.9 84.4h256.4L191.1 193z"/></symbol><symbol id="ico-facebook" viewBox="0 0 96.1 96.1"><path d="M72.1 0H59.6c-14 0-23.1 9.3-23.1 23.7v10.9H24c-1.1 0-2 .9-2 2v15.8c0 1.1.9 2 2 2h12.5v39.9c0 1.1.9 2 2 2h16.4c1.1 0 2-.9 2-2v-40h14.7c1.1 0 2-.9 2-2V36.5c0-.5-.2-1-.6-1.4s-.9-.6-1.4-.6H56.8v-9.2c0-4.4 1.1-6.7 6.8-6.7H72c1.1 0 2-.9 2-2V2c0-1.1-.8-2-1.9-2z"/></symbol><symbol id="ico-google-plus" viewBox="0 0 50 50"><path d="M29.3 31.1c-.6-.8-1.2-1.4-2-2-.7-.6-1.6-1.1-2.1-1.9-1.1-1.8 1.3-3.2 2.3-4.4 2.4-2.6 1.7-7.5-1.3-9.4.7 0 1.8.2 2.5 0 .8-.2 1.7-1 2.4-1.4h-7.7c-2.4 0-4.9.3-6.8 1.9-2.2 1.8-3.3 4.7-2.4 7.5 1 3.2 4.4 4.6 7.5 4.2-.2.7-.5 1.2-.4 1.9.1.9.6 1.7 1.1 2.4-2.8.1-6.2.6-8.5 2.5-2.1 1.8-2.8 5-.9 7.2 2 2.3 5.6 2.7 8.4 2.5 2.5-.2 4.9-1 6.7-2.7 2.3-2.3 3.1-5.8 1.2-8.3-.4-.4.3.4 0 0zm-7-6.5c-5.1 0-7.4-11.3-1.5-11.3 2.9 0 4.2 3.2 4.7 5.7.4 2.4-.1 5.6-3.2 5.6zm5 13.5c-1.7 2.9-6.4 2.6-9 1.5-2.7-1.2-4.1-4.7-1.6-7 1.1-1 2.7-1.4 4.1-1.6.8-.1 1.6-.2 2.4-.1.6.1.9.4 1.4.7 2.1 1.5 4.3 3.8 2.7 6.5-.3.6.3-.6 0 0z"/><path d="M40 16h-4v-4h-2v4h-4v2h4v4h2v-4h4z"/></symbol><symbol id="ico-linkedin" viewBox="0 0 24 24"><path d="M5 3.5C5 4.9 3.9 6 2.5 6S0 4.9 0 3.5 1.1 1 2.5 1 5 2.1 5 3.5zM5 8H0v16h5V8zm8 0H8v16h5v-8.4c0-4.7 6-5.1 6 0V24h5V13.9c0-7.9-8.9-7.6-11-3.7V8z"/></symbol><symbol id="ico-phone" viewBox="0 0 27.442 27.442"><path d="M19.494 0H7.948a1.997 1.997 0 0 0-1.997 1.999v23.446c0 1.102.892 1.997 1.997 1.997h11.546a1.998 1.998 0 0 0 1.997-1.997V1.999A1.999 1.999 0 0 0 19.494 0zm-8.622 1.214h5.7c.144 0 .261.215.261.481s-.117.482-.261.482h-5.7c-.145 0-.26-.216-.26-.482s.115-.481.26-.481zm2.85 24.255a1.275 1.275 0 1 1 0-2.55 1.275 1.275 0 0 1 0 2.55zm6.273-4.369H7.448V3.373h12.547V21.1z"/></symbol><symbol id="ico-placeholder" viewBox="0 0 512 512"><path d="M446.8 494l-67.5-142.8c-1.3-2.8-3.7-5-6.5-6.2l-33.5-15 58.2-97.5c.1-.2.3-.5.4-.7 11.6-22.6 17.4-47 17.4-72.5 0-43-16.8-83.2-47.4-113.4C337.2 15.7 296.7-.6 253.7 0c-41.7.6-81 17.4-110.6 47.2-29.7 29.9-46.1 69.3-46.4 111.1-.2 25.5 5.9 50.9 17.4 73.5.1.2.3.5.4.7l58.2 97.5-33.7 15c-2.8 1.2-5 3.4-6.3 6.1L65.2 494c-2.3 4.8-1.3 10.5 2.4 14.2 3.7 3.8 9.3 4.9 14.2 2.7l84.6-37.6 84.6 37.6c3.3 1.5 7 1.5 10.3 0l84.6-37.6 84.6 37.6c1.7.7 3.4 1.1 5.1 1.1 3.3 0 6.6-1.3 9-3.8 3.5-3.8 4.5-9.5 2.2-14.2zM136.5 219.9c-9.7-19.1-14.6-39.8-14.5-61.5.4-72.4 59.7-132.1 132.1-133.1 36.2-.5 70.3 13.2 96 38.6 25.7 25.4 39.9 59.3 39.9 95.4 0 21.4-4.9 41.8-14.5 60.6L266.9 402.1c-3.3 5.6-8.7 6.2-10.8 6.2-2.2 0-7.5-.6-10.8-6.2L136.5 219.9zm214.3 228c-3.3-1.5-7-1.5-10.3 0L256 485.5l-84.6-37.6c-3.3-1.5-7-1.5-10.3 0L102.6 474l50.9-107.7 32.3-14.4 37.7 63.1c6.9 11.6 19.1 18.5 32.5 18.5s25.6-6.9 32.5-18.5l37.7-63.1 32.3 14.4L409.4 474l-58.6-26.1z"/><path d="M256 101.6c-31.8 0-57.7 25.9-57.7 57.7S224.2 217 256 217c31.8 0 57.7-25.9 57.7-57.7s-25.9-57.7-57.7-57.7zm0 90.1c-17.9 0-32.4-14.5-32.4-32.4s14.5-32.4 32.4-32.4 32.4 14.5 32.4 32.4-14.5 32.4-32.4 32.4z"/></symbol><symbol id="ico-vk" viewBox="0 0 548.4 548.4"><path d="M545.5 400.3c-.7-1.4-1.3-2.6-1.9-3.6-9.5-17.1-27.7-38.2-54.5-63.1l-.6-.6-.3-.3-.3-.3h-.3c-12.2-11.6-19.9-19.4-23.1-23.4-5.9-7.6-7.2-15.3-4-23.1 2.3-5.9 10.9-18.4 25.7-37.4 7.8-10.1 14-18.2 18.6-24.3 32.9-43.8 47.2-71.8 42.8-83.9l-1.7-2.8c-1.1-1.7-4.1-3.3-8.8-4.7-4.8-1.4-10.9-1.7-18.3-.7l-82.2.6c-1.3-.5-3.2-.4-5.7.1-2.5.6-3.7.9-3.7.9l-1.4.7-1.1.9c-1 .6-2 1.6-3.1 3s-2.1 3.1-2.8 5c-9 23-19.1 44.4-30.6 64.2-7 11.8-13.5 22-19.4 30.7-5.9 8.7-10.8 15-14.8 19.1-4 4.1-7.6 7.4-10.9 9.8-3.2 2.5-5.7 3.5-7.4 3.1-1.7-.4-3.3-.8-4.9-1.1-2.7-1.7-4.8-4-6.4-7-1.6-3-2.7-6.7-3.3-11.1-.6-4.5-.9-8.3-1-11.6-.1-3.2 0-7.8.1-13.7.2-5.9.3-9.9.3-12 0-7.2.1-15.1.4-23.6.3-8.5.5-15.2.7-20.1.2-4.9.3-10.2.3-15.7s-.3-9.8-1-13c-.7-3.1-1.7-6.2-3-9.1-1.3-2.9-3.3-5.2-5.9-6.9-2.6-1.6-5.8-2.9-9.6-3.9-10.1-2.3-22.9-3.5-38.5-3.7-35.4-.4-58.1 1.9-68.2 6.9-4 2.1-7.6 4.9-10.8 8.6-3.4 4.2-3.9 6.5-1.4 6.9 11.4 1.7 19.5 5.8 24.3 12.3l1.7 3.4c1.3 2.5 2.7 6.9 4 13.1 1.3 6.3 2.2 13.2 2.6 20.8.9 13.9.9 25.8 0 35.7-1 9.9-1.9 17.6-2.7 23.1-.9 5.5-2.1 10-3.9 13.4-1.7 3.4-2.9 5.5-3.4 6.3-.6.8-1 1.2-1.4 1.4-2.5.9-5 1.4-7.7 1.4s-5.9-1.3-9.7-4c-3.8-2.7-7.8-6.3-11.8-11-4.1-4.7-8.7-11.2-13.9-19.6-5.1-8.4-10.5-18.3-16-29.7l-4.6-8.3c-2.9-5.3-6.8-13.1-11.7-23.3-5-10.2-9.3-20-13.1-29.6-1.5-4-3.8-7-6.9-9.1l-1.4-.9c-.9-.8-2.5-1.6-4.6-2.4-2.1-.9-4.3-1.5-6.6-1.9l-78.2.6c-8 0-13.4 1.8-16.3 5.4l-1.1 1.7c-.6 1-.9 2.5-.9 4.6 0 2.1.6 4.7 1.7 7.7 11.4 26.8 23.8 52.7 37.3 77.7s25.1 45 35 60.2c9.9 15.2 20 29.6 30.3 43.1s17.1 22.2 20.4 26c3.3 3.8 6 6.7 7.9 8.6l7.1 6.9c4.6 4.6 11.3 10 20.1 16.4 8.9 6.4 18.7 12.7 29.4 18.9 10.8 6.2 23.3 11.2 37.5 15.1 14.3 3.9 28.2 5.5 41.7 4.7h32.8c6.7-.6 11.7-2.7 15.1-6.3l1.1-1.4c.8-1.1 1.5-2.9 2.1-5.3.7-2.4 1-5 1-7.9-.2-8.2.4-15.6 1.9-22.1 1.4-6.6 3-11.5 4.9-14.8 1.8-3.3 3.9-6.1 6.1-8.4 2.3-2.3 3.9-3.7 4.9-4.1.9-.5 1.7-.8 2.3-1 4.6-1.5 9.9 0 16.1 4.4 6.2 4.5 12 10 17.4 16.6 5.4 6.6 11.9 13.9 19.6 22.1 7.6 8.2 14.3 14.3 20 18.3l5.7 3.4c3.8 2.3 8.8 4.4 14.9 6.3 6.1 1.9 11.4 2.4 16 1.4l73.1-1.1c7.2 0 12.9-1.2 16.8-3.6 4-2.4 6.4-5 7.1-7.9.8-2.9.8-6.1.1-9.7-.8-3.4-1.5-6-2.1-7.4z"/></symbol><symbol id="ico-youtube" viewBox="0 0 310 310"><path d="M297.9 64.6c-11.2-13.3-31.9-18.7-71.3-18.7H83.4c-40.4 0-61.4 5.8-72.5 20C0 79.7 0 100 0 128.2v53.7c0 54.6 12.9 82.2 83.4 82.2h143.2c34.2 0 53.2-4.8 65.4-16.5 12.6-12 17.9-31.7 17.9-65.7v-53.7c.1-29.7-.7-50.2-12-63.6zM199 162.4l-65 34c-1.5.8-3 1.1-4.6 1.1-1.8 0-3.6-.5-5.2-1.4-3-1.8-4.8-5.1-4.8-8.6v-67.8c0-3.5 1.8-6.7 4.8-8.5 3-1.8 6.7-1.9 9.8-.3l65 33.8c3.3 1.7 5.4 5.1 5.4 8.9 0 3.7-2.1 7.1-5.4 8.8z"/></symbol><symbol id="icor-time" viewBox="0 0 24 24"><path d="M12 2c5.5 0 10 4.5 10 10s-4.5 10-10 10S2 17.5 2 12 6.5 2 12 2zm0-2C5.4 0 0 5.4 0 12s5.4 12 12 12 12-5.4 12-12S18.6 0 12 0zm1 12V6h-2v8h7v-2h-5z"/></symbol></svg>