<?xml version="1.0" encoding="utf-8"?>
<!-- Generator: Adobe Illustrator 21.1.0, SVG Export Plug-In . SVG Version: 6.00 Build 0)  -->
<svg version="1.1" id="Layer_1" xmlns="http://www.w3.org/2000/svg" xmlns:xlink="http://www.w3.org/1999/xlink" x="0px" y="0px"
	 viewBox="0 0 23.9 23.9" style="enable-background:new 0 0 23.9 23.9;" xml:space="preserve">
<style type="text/css">
	.st0{fill:#FFFFFF;}
</style>
<path class="st0" d="M15,11.9l8.2-8.2c0.3-0.3,0.3-0.7,0-1l-2-2c-0.1-0.1-0.3-0.2-0.5-0.2c-0.2,0-0.4,0.1-0.5,0.2l-8.3,8.2L3.7,0.6
	c-0.3-0.3-0.8-0.3-1,0l-2,2c-0.3,0.3-0.3,0.7,0,1l8.2,8.2l-8.2,8.2c-0.3,0.3-0.3,0.7,0,1l2,2c0.1,0.1,0.3,0.2,0.5,0.2
	s0.4-0.1,0.5-0.2l8.3-8.2l8.2,8.2c0.1,0.1,0.3,0.2,0.5,0.2c0.2,0,0.4-0.1,0.5-0.2l2-2c0.3-0.3,0.3-0.7,0-1L15,11.9z"/>
</svg>
