<svg xmlns="http://www.w3.org/2000/svg" viewBox="0 0 27 32"><path fill="#656565" d="M22.5 7.6l3-3V7h1.1V2.8h-4.3v1.1h2.5l-3 3C19 4.3 15.4 2.7 11.4 2.7 7 2.7 2.9 4.6 0 7.9l.8.7.3-.3 9.5 9.6L7 21.5H4.4L.7 25.2h3.4v3.4l3.7-3.7v-2.7l3.6-3.6 9.5 9.5-.3.3.7.8c3.3-2.9 5.2-7 5.2-11.4.1-3.9-1.5-7.6-4-10.2zM6.8 24.4L5.2 26v-1.9H3.3l1.6-1.6h1.9v1.9zM1.9 7.5c2.6-2.4 6-3.7 9.5-3.7 3.7 0 7 1.4 9.5 3.7L11.4 17c0 .1-9.5-9.5-9.5-9.5zm19.8.8c2.3 2.5 3.7 5.9 3.7 9.5 0 3.6-1.3 6.9-3.7 9.5l-9.5-9.5c0 .1 9.5-9.5 9.5-9.5z"/></svg>