<svg xmlns="http://www.w3.org/2000/svg" viewBox="0 0 29 32"><path fill="#656565" d="M21.8 12.7c-2 0-4.1 1.8-6.5 2.1v-1c0-2.6 1.9-5.2 5.2-5.2h.5c3 0 6-2.3 6.3-6.3h-1C26 5.6 23.5 7.5 21 7.5h-.6c-3.8 0-6.2 3.2-6.2 6.2v1c-2.5-.3-4.5-2.1-6.5-2.1C5.5 12.7 0 17 0 25.4c0 4.2 2.9 4.4 3.2 4.4 1.8 0 3.4-.9 5.5-2.9s2.9-2.6 4.4-2.6h3.1c1.5 0 2.3.5 4.4 2.6s3.7 2.9 5.5 2.9c.4 0 3.2-.1 3.2-4.4.1-8.4-5.4-12.7-7.5-12.7zm4.4 16c-1.5 0-3-.8-4.8-2.6-2-2-3.1-2.9-5.1-2.9h-3.2c-2 0-3.1.9-5.1 2.9-1.8 1.8-3.2 2.6-4.7 2.6-.5 0-2.2-.2-2.2-3.3 0-8 5.2-11.6 6.6-11.6.8 0 1.7.4 2.7.9 1.3.6 2.7 1.2 4.4 1.2 1.6 0 3.1-.7 4.3-1.2 1-.4 1.9-.9 2.7-.9 1.3 0 6.6 3.6 6.6 11.6-.1 3.1-1.7 3.3-2.2 3.3z"/><path fill="#656565" d="M8.4 16.9h-1V19H5.2v1h2.1v2.1h1V20h2.1v-1h-2v-2.1zM19.4 18c-.9 0-1.6.7-1.6 1.6s.7 1.6 1.6 1.6 1.6-.7 1.6-1.6-.7-1.6-1.6-1.6zm0 2.1c-.3 0-.5-.2-.5-.5s.2-.5.5-.5.5.2.5.5c0 .2-.2.5-.5.5zM23.6 19c-.9 0-1.6.7-1.6 1.6s.7 1.6 1.6 1.6 1.6-.7 1.6-1.6-.7-1.6-1.6-1.6zm0 2.1c-.3 0-.5-.2-.5-.5s.2-.5.5-.5.5.2.5.5-.2.5-.5.5z"/></svg>