<svg xmlns="http://www.w3.org/2000/svg" viewBox="0 0 32 32"><path fill="#FFF" d="M16 6.4c-5.8 0-10.4 3.7-16 9.6 4.8 5.1 8.9 9.6 16 9.6s12.4-5.7 16-9.5c-3.7-4.4-8.9-9.7-16-9.7zm0 18.1c-6.3 0-10.2-3.9-14.5-8.5 5.2-5.4 9.3-8.5 14.5-8.5 6.2 0 11 4.4 14.6 8.6-3.6 3.6-8.3 8.4-14.6 8.4z"/><path fill="#FFF" d="M16 9.6c-3.5 0-6.4 2.9-6.4 6.4s2.9 6.4 6.4 6.4 6.4-2.9 6.4-6.4-2.9-6.4-6.4-6.4zm0 11.7c-2.9 0-5.3-2.4-5.3-5.3s2.4-5.3 5.3-5.3 5.3 2.4 5.3 5.3-2.4 5.3-5.3 5.3z"/><path fill="#FFF" d="M16 12.3c-2.1 0-3.7 1.7-3.7 3.7s1.7 3.7 3.7 3.7 3.7-1.7 3.7-3.7-1.6-3.7-3.7-3.7zm0 6.4c-1.5 0-2.7-1.2-2.7-2.7s1.2-2.7 2.7-2.7 2.7 1.2 2.7 2.7-1.2 2.7-2.7 2.7z"/></svg>