<svg xmlns="http://www.w3.org/2000/svg" viewBox="0 0 28 32"><path fill="#656565" d="M22.3 14.8L11.9 4.4l-.2.2v-.3c0-1.8-1.4-3.2-3.2-3.2S5.3 2.5 5.3 4.3V11L.9 15.4c-1.2 1.2-1.2 3.2 0 4.4l6 6c.6.6 1.4.9 2.2.9s1.6-.3 2.2-.9l7.6-7.7h6.6l-3.2-3.3zM6.4 4.3c0-1.2 1-2.1 2.1-2.1s2.1 1 2.1 2.1v1.3L6.4 9.9V4.3zm12.2 12.8l-8 8c-.4.4-.9.6-1.5.6-.5 0-1.1-.2-1.4-.6l-6-6c-.8-.8-.8-2.1 0-2.9l9-9v6.7h1.1V6.1l.2-.2 11 11.2h-4.4zM28.2 27c-.3-2.9-3.4-6.7-3.4-6.7s-3.1 3.9-3.4 6.8v.4c0 1.9 1.5 3.5 3.5 3.5s3.5-1.5 3.5-3.5c-.1-.2-.1-.4-.2-.5zm-3.4 2.9c-1.3 0-2.4-1.1-2.4-2.4v-.3c.2-1.6 1.4-3.7 2.3-5.1 1 1.4 2.2 3.5 2.4 5.1v.3c.1 1.3-1 2.4-2.3 2.4z"/></svg>