<svg xmlns="http://www.w3.org/2000/svg" viewBox="0 0 32 32"><path fill="#656565" d="M9.1 30.5l-1.3-6.3-6.3-1.4 1.3-2.5 5.8-.3c.3-.4 1-1.2 1.4-1.6l5.3-5.3-11-5.4L7 4.9l13.9 2.4 4.9-4.9c.6-.6 1.5-.9 2.6-.9.8 0 1.4.1 1.4.1l.3.1.1.3c.5 1.5.2 3.3-.7 4.2l-5 5L27.1 25l-2.8 2.8L19 16.9l-5 4.9c-.5.5-1.6 1.5-2 1.9l-.4 5.4-2.5 1.4zm-6-8.4l5.6 1.2 1.2 5.5.7-.4.4-5.3.2-.1s1.5-1.4 2.2-2l6-6 5.2 11 1.3-1.3-2.4-13.9 5.3-5.3c.5-.5.7-1.6.5-2.8-.2 0-.5-.1-.9-.1-.6 0-1.4.1-1.9.6l-5.3 5.3L7.4 6.1 6 7.4l11 5.4-6.3 6.3c-.5.5-1.4 1.7-1.4 1.7l-.2.2-5.7.3-.3.8z"/></svg>