<svg xmlns="http://www.w3.org/2000/svg"><symbol id="ico-facebook" viewBox="0 0 96.1 96.1"><style>.st0{fill:#fcfcfc}</style><path class="st0" d="M72.1 0H59.6c-14 0-23.1 9.3-23.1 23.7v10.9H24c-1.1 0-2 .9-2 2v15.8c0 1.1.9 2 2 2h12.5v39.9c0 1.1.9 2 2 2h16.4c1.1 0 2-.9 2-2v-40h14.7c1.1 0 2-.9 2-2V36.5c0-.5-.2-1-.6-1.4s-.9-.6-1.4-.6H56.8v-9.2c0-4.4 1.1-6.7 6.8-6.7H72c1.1 0 2-.9 2-2V2c0-1.1-.8-2-1.9-2z"/></symbol><symbol id="ico-instagram" viewBox="0 0 169.1 169.1"><g fill="#fff"><path d="M122.4 0H46.7C20.9 0 0 20.9 0 46.7v75.8c0 25.7 20.9 46.7 46.7 46.7h75.8c25.7 0 46.7-20.9 46.7-46.7V46.7C169.1 20.9 148.1 0 122.4 0zm31.7 122.4c0 17.5-14.2 31.7-31.7 31.7H46.7c-17.5 0-31.7-14.2-31.7-31.7V46.7C15 29.2 29.2 15 46.7 15h75.8c17.5 0 31.7 14.2 31.7 31.7l-.1 75.7z"/><path d="M84.5 41C60.5 41 41 60.5 41 84.5s19.5 43.6 43.6 43.6 43.6-19.5 43.6-43.6c-.1-24-19.6-43.5-43.7-43.5zm0 72.1c-15.7 0-28.6-12.8-28.6-28.6C56 68.8 68.8 56 84.5 56s28.6 12.8 28.6 28.6c0 15.7-12.8 28.5-28.6 28.5zM129.9 28.3c-2.9 0-5.7 1.2-7.8 3.2-2.1 2-3.2 4.9-3.2 7.8 0 2.9 1.2 5.7 3.2 7.8 2 2 4.9 3.2 7.8 3.2 2.9 0 5.7-1.2 7.8-3.2 2.1-2 3.2-4.9 3.2-7.8 0-2.9-1.2-5.7-3.2-7.8-2-2.1-4.9-3.2-7.8-3.2z"/></g></symbol><symbol id="ico-star-fill" viewBox="0 0 49.9 49.9"><path d="M48.9 22.7c1-1 1.3-2.4.9-3.7-.4-1.3-1.5-2.2-2.9-2.4l-12.1-1.8c-.5-.1-1-.4-1.2-.9L28.2 3c-.6-1.2-1.8-2-3.2-2-1.4 0-2.6.8-3.2 2l-5.4 11c-.2.5-.7.8-1.2.9L3.1 16.6C1.7 16.8.6 17.7.2 19c-.4 1.3-.1 2.7.9 3.7l8.7 8.5c.4.4.5.9.5 1.4l-2.1 12c-.2 1.4.3 2.7 1.4 3.5 1.1.8 2.6.9 3.8.3l10.8-5.7c.5-.2 1-.2 1.5 0l10.8 5.7c.5.3 1.1.4 1.7.4.7 0 1.5-.2 2.1-.7 1.1-.8 1.7-2.1 1.4-3.5l-2.1-12c-.1-.5.1-1 .5-1.4l8.8-8.5z"/><path d="M37.7 33l2.1 12c.1.6-.1 1.2-.6 1.5-.5.4-1.1.4-1.7.1L26.6 41c-.5-.3-1.1-.4-1.7-.4s-1.1.1-1.7.4l-10.8 5.7c-.5.3-1.2.2-1.7-.1-.5-.4-.7-.9-.6-1.5l2.1-12c.2-1.2-.2-2.3-1-3.2l-8.7-8.5c-.4-.4-.6-1-.4-1.6.2-.6.7-1 1.3-1.1l12.1-1.8c1.2-.2 2.2-.9 2.7-2l5.4-11c.2-.5.8-.9 1.4-.9.6 0 1.1.3 1.4.9l5.4 11c.5 1.1 1.5 1.8 2.7 2l12.1 1.8c.6.1 1.1.5 1.3 1.1.2.6 0 1.2-.4 1.6l-8.7 8.5c-.9.7-1.3 1.9-1.1 3.1z"/></symbol><symbol id="ico-star" viewBox="0 0 49.9 49.9"><path d="M48.9 22.7c1-1 1.3-2.4.9-3.7-.4-1.3-1.5-2.2-2.9-2.4l-12.1-1.8c-.5-.1-1-.4-1.2-.9L28.2 3c-.6-1.2-1.8-2-3.2-2-1.4 0-2.6.8-3.2 2l-5.4 11c-.2.5-.7.8-1.2.9L3.1 16.6C1.7 16.8.6 17.7.2 19c-.4 1.3-.1 2.7.9 3.7l8.7 8.5c.4.4.5.9.5 1.4l-2.1 12c-.2 1.4.3 2.7 1.4 3.5 1.1.8 2.6.9 3.8.3l10.8-5.7c.5-.2 1-.2 1.5 0l10.8 5.7c.5.3 1.1.4 1.7.4.7 0 1.5-.2 2.1-.7 1.1-.8 1.7-2.1 1.4-3.5l-2.1-12c-.1-.5.1-1 .5-1.4l8.8-8.5zM37.7 33l2.1 12c.1.6-.1 1.2-.6 1.5-.5.4-1.1.4-1.7.1L26.6 41c-.5-.3-1.1-.4-1.7-.4s-1.1.1-1.7.4l-10.8 5.7c-.5.3-1.2.2-1.7-.1-.5-.4-.7-.9-.6-1.5l2.1-12c.2-1.2-.2-2.3-1-3.2l-8.7-8.5c-.4-.4-.6-1-.4-1.6.2-.6.7-1 1.3-1.1l12.1-1.8c1.2-.2 2.2-.9 2.7-2l5.4-11c.2-.5.8-.9 1.4-.9.6 0 1.1.3 1.4.9l5.4 11c.5 1.1 1.5 1.8 2.7 2l12.1 1.8c.6.1 1.1.5 1.3 1.1.2.6 0 1.2-.4 1.6l-8.7 8.5c-.9.7-1.3 1.9-1.1 3.1z"/></symbol><symbol id="ico-twitter" viewBox="0 0 612 612"><path d="M612 116.3c-22.5 10-46.7 16.7-72.1 19.8 25.9-15.5 45.8-40.2 55.2-69.4-24.3 14.4-51.2 24.8-79.8 30.5-22.9-24.4-55.5-39.7-91.6-39.7-69.3 0-125.6 56.2-125.6 125.5 0 9.8 1.1 19.4 3.3 28.6-104.3-5.2-196.8-55.2-258.8-131.2-10.8 18.5-17 40.1-17 63.1 0 43.6 22.2 82 55.8 104.5-20.6-.7-39.9-6.3-56.9-15.8v1.6c0 60.8 43.3 111.6 100.7 123.1-10.5 2.8-21.6 4.4-33.1 4.4-8.1 0-15.9-.8-23.6-2.3 16 49.9 62.3 86.2 117.3 87.2-42.9 33.7-97.1 53.7-155.9 53.7-10.1 0-20.1-.6-29.9-1.7 55.6 35.7 121.5 56.5 192.4 56.5 230.9 0 357.2-191.3 357.2-357.2l-.4-16.3c24.7-17.7 46-39.8 62.8-64.9z" fill="#fff"/></symbol></svg>