<svg xmlns="http://www.w3.org/2000/svg"><symbol id="alarm" viewBox="0 0 32 32"><circle fill="none" stroke="#7C1313" stroke-width="1.21" stroke-miterlimit="10" cx="16.1" cy="17.6" r="11.2"/><path fill="none" stroke="#7C1313" stroke-miterlimit="10" d="M16 9.1V18M16.5 18.2H9.6"/></symbol><symbol id="arc" viewBox="0 0 27 32"><path fill="#656565" d="M22.5 7.6l3-3V7h1.1V2.8h-4.3v1.1h2.5l-3 3C19 4.3 15.4 2.7 11.4 2.7 7 2.7 2.9 4.6 0 7.9l.8.7.3-.3 9.5 9.6L7 21.5H4.4L.7 25.2h3.4v3.4l3.7-3.7v-2.7l3.6-3.6 9.5 9.5-.3.3.7.8c3.3-2.9 5.2-7 5.2-11.4.1-3.9-1.5-7.6-4-10.2zM6.8 24.4L5.2 26v-1.9H3.3l1.6-1.6h1.9v1.9zM1.9 7.5c2.6-2.4 6-3.7 9.5-3.7 3.7 0 7 1.4 9.5 3.7L11.4 17c0 .1-9.5-9.5-9.5-9.5zm19.8.8c2.3 2.5 3.7 5.9 3.7 9.5 0 3.6-1.3 6.9-3.7 9.5l-9.5-9.5c0 .1 9.5-9.5 9.5-9.5z"/></symbol><symbol id="diamond" viewBox="0 0 28 32"><path fill="#656565" d="M27.5 10.7l-6.3-7.5H6.8L.5 10.7l-.5.5.4.5L14 28.8l14-17.6-.5-.5zm-1.4 0H15.4l5.3-6.3c0-.1 5.4 6.3 5.4 6.3zm-12.2 0L8.4 4.3h11l-5.5 6.4zM7.1 4.4l5.4 6.2H1.9c0 .1 5.2-6.2 5.2-6.2zm6.3 7.3v14.7L1.8 11.7h11.6zm1.1 14.7V11.7h11.6L14.5 26.4z"/></symbol><symbol id="joy" viewBox="0 0 29 32"><path fill="#656565" d="M21.8 12.7c-2 0-4.1 1.8-6.5 2.1v-1c0-2.6 1.9-5.2 5.2-5.2h.5c3 0 6-2.3 6.3-6.3h-1C26 5.6 23.5 7.5 21 7.5h-.6c-3.8 0-6.2 3.2-6.2 6.2v1c-2.5-.3-4.5-2.1-6.5-2.1C5.5 12.7 0 17 0 25.4c0 4.2 2.9 4.4 3.2 4.4 1.8 0 3.4-.9 5.5-2.9s2.9-2.6 4.4-2.6h3.1c1.5 0 2.3.5 4.4 2.6s3.7 2.9 5.5 2.9c.4 0 3.2-.1 3.2-4.4.1-8.4-5.4-12.7-7.5-12.7zm4.4 16c-1.5 0-3-.8-4.8-2.6-2-2-3.1-2.9-5.1-2.9h-3.2c-2 0-3.1.9-5.1 2.9-1.8 1.8-3.2 2.6-4.7 2.6-.5 0-2.2-.2-2.2-3.3 0-8 5.2-11.6 6.6-11.6.8 0 1.7.4 2.7.9 1.3.6 2.7 1.2 4.4 1.2 1.6 0 3.1-.7 4.3-1.2 1-.4 1.9-.9 2.7-.9 1.3 0 6.6 3.6 6.6 11.6-.1 3.1-1.7 3.3-2.2 3.3z"/><path fill="#656565" d="M8.4 16.9h-1V19H5.2v1h2.1v2.1h1V20h2.1v-1h-2v-2.1zM19.4 18c-.9 0-1.6.7-1.6 1.6s.7 1.6 1.6 1.6 1.6-.7 1.6-1.6-.7-1.6-1.6-1.6zm0 2.1c-.3 0-.5-.2-.5-.5s.2-.5.5-.5.5.2.5.5c0 .2-.2.5-.5.5zM23.6 19c-.9 0-1.6.7-1.6 1.6s.7 1.6 1.6 1.6 1.6-.7 1.6-1.6-.7-1.6-1.6-1.6zm0 2.1c-.3 0-.5-.2-.5-.5s.2-.5.5-.5.5.2.5.5-.2.5-.5.5z"/></symbol><symbol id="like" viewBox="0 0 27.8 24"><path fill="none" stroke="#BC1313" stroke-miterlimit="10" d="M25 12.5L14.1 23.3 3.2 12.5c-2-2.5-2.4-5.8-1-8.3C3.6 1.7 6.1 1 6.5.9c2.7-.7 5.7.5 7.7 2.9C16 1.4 19 .3 21.8.9c.3.1 2.9.8 4.2 3.2 1.4 2.5 1.1 5.9-1 8.4z"/></symbol><symbol id="logo-light" viewBox="0 0 800.000000 616.000000"><path d="M16.7 1.4c-5.5 2-10.3 6.1-13.4 11.4C.9 16.8.5 18.6.5 25c0 5.1.6 8.5 1.7 10.6 1 1.8 44 67 95.7 145 51.7 78.1 136.4 205.9 188.2 284.1 51.8 78.3 95.4 143.4 96.8 144.7 9 8.6 25.2 8.6 34.2 0 1.4-1.3 45-66.4 96.8-144.7 51.8-78.2 136.5-206 188.2-284.1 51.7-78 94.7-143.2 95.7-145 1.1-2.1 1.7-5.5 1.7-10.6 0-6.4-.4-8.2-2.8-12.2-3.1-5.3-7.9-9.4-13.4-11.4-5.6-2-761-2-766.6 0zm335.4 50.3c-3.2 6-139 209.8-139.7 209.7-.7-.1-136.8-204.6-139.5-209.7-.9-1.6 6-1.7 139.6-1.7s140.5.1 139.6 1.7zm375 0c-3.2 6-139 209.8-139.7 209.7-.7-.1-136.8-204.6-139.5-209.7-.9-1.6 6-1.7 139.6-1.7s140.5.1 139.6 1.7zm-264.6 113c34.1 51.5 69.4 104.8 78.4 118.4l16.3 24.9L479 426c-43.1 64.9-78.6 118-79 118-.4 0-35.9-53.1-79-118l-78.2-118 16.3-24.9c46.5-70.5 140.5-212 140.9-212 .3 0 28.4 42.1 62.5 93.6z" fill="#FFF"/></symbol><symbol id="logo-piroll" viewBox="0 0 800 616"><path fill="none" stroke="#3C409A" stroke-width="20" stroke-miterlimit="10" d="M375.6 549.6L62.4 69c-12.6-19.4 1.3-45 24.4-45h626.5c23.1 0 37 25.7 24.4 45L424.4 549.6c-11.5 17.6-37.3 17.6-48.8 0z"/><path fill="none" stroke="#3C409A" stroke-width="20" stroke-miterlimit="10" d="M216.5 305.5L61.2 67.3C49.1 48.7 62.4 24 84.7 24H400L216.5 305.5zM583.5 305.5L400 24h315.3c22.2 0 35.6 24.7 23.5 43.3L583.5 305.5z"/></symbol><symbol id="logo" viewBox="0 0 800.000000 616.000000"><path d="M16.7 1.4c-5.5 2-10.3 6.1-13.4 11.4C.9 16.8.5 18.6.5 25c0 5.1.6 8.5 1.7 10.6 1 1.8 44 67 95.7 145 51.7 78.1 136.4 205.9 188.2 284.1 51.8 78.3 95.4 143.4 96.8 144.7 9 8.6 25.2 8.6 34.2 0 1.4-1.3 45-66.4 96.8-144.7 51.8-78.2 136.5-206 188.2-284.1 51.7-78 94.7-143.2 95.7-145 1.1-2.1 1.7-5.5 1.7-10.6 0-6.4-.4-8.2-2.8-12.2-3.1-5.3-7.9-9.4-13.4-11.4-5.6-2-761-2-766.6 0zm335.4 50.3c-3.2 6-139 209.8-139.7 209.7-.7-.1-136.8-204.6-139.5-209.7-.9-1.6 6-1.7 139.6-1.7s140.5.1 139.6 1.7zm375 0c-3.2 6-139 209.8-139.7 209.7-.7-.1-136.8-204.6-139.5-209.7-.9-1.6 6-1.7 139.6-1.7s140.5.1 139.6 1.7zm-264.6 113c34.1 51.5 69.4 104.8 78.4 118.4l16.3 24.9L479 426c-43.1 64.9-78.6 118-79 118-.4 0-35.9-53.1-79-118l-78.2-118 16.3-24.9c46.5-70.5 140.5-212 140.9-212 .3 0 28.4 42.1 62.5 93.6z"/></symbol><symbol id="look" viewBox="0 0 32 32"><path fill="#FFF" d="M16 6.4c-5.8 0-10.4 3.7-16 9.6 4.8 5.1 8.9 9.6 16 9.6s12.4-5.7 16-9.5c-3.7-4.4-8.9-9.7-16-9.7zm0 18.1c-6.3 0-10.2-3.9-14.5-8.5 5.2-5.4 9.3-8.5 14.5-8.5 6.2 0 11 4.4 14.6 8.6-3.6 3.6-8.3 8.4-14.6 8.4z"/><path fill="#FFF" d="M16 9.6c-3.5 0-6.4 2.9-6.4 6.4s2.9 6.4 6.4 6.4 6.4-2.9 6.4-6.4-2.9-6.4-6.4-6.4zm0 11.7c-2.9 0-5.3-2.4-5.3-5.3s2.4-5.3 5.3-5.3 5.3 2.4 5.3 5.3-2.4 5.3-5.3 5.3z"/><path fill="#FFF" d="M16 12.3c-2.1 0-3.7 1.7-3.7 3.7s1.7 3.7 3.7 3.7 3.7-1.7 3.7-3.7-1.6-3.7-3.7-3.7zm0 6.4c-1.5 0-2.7-1.2-2.7-2.7s1.2-2.7 2.7-2.7 2.7 1.2 2.7 2.7-1.2 2.7-2.7 2.7z"/></symbol><symbol id="magic-wand" viewBox="0 0 26 32"><path fill="#656565" d="M0 28.2l13.9-13.9.8.8L.7 29l-.7-.8zM10 10.5h4.3v1.1H10v-1.1zM21.7 10.5H26v1.1h-4.3v-1.1zM17.4 14.7h1.1V19h-1.1v-4.3zM17.4 3h1.1v4.3h-1.1V3zM24 5.7l-3 3-.8-.7 3-3 .8.7zM23.2 17l-3-3 .8-.8 3 3-.8.8zM15 8.7l-3-3 .7-.7 3 3-.7.7z"/></symbol><symbol id="paint-bucket" viewBox="0 0 28 32"><path fill="#656565" d="M22.3 14.8L11.9 4.4l-.2.2v-.3c0-1.8-1.4-3.2-3.2-3.2S5.3 2.5 5.3 4.3V11L.9 15.4c-1.2 1.2-1.2 3.2 0 4.4l6 6c.6.6 1.4.9 2.2.9s1.6-.3 2.2-.9l7.6-7.7h6.6l-3.2-3.3zM6.4 4.3c0-1.2 1-2.1 2.1-2.1s2.1 1 2.1 2.1v1.3L6.4 9.9V4.3zm12.2 12.8l-8 8c-.4.4-.9.6-1.5.6-.5 0-1.1-.2-1.4-.6l-6-6c-.8-.8-.8-2.1 0-2.9l9-9v6.7h1.1V6.1l.2-.2 11 11.2h-4.4zM28.2 27c-.3-2.9-3.4-6.7-3.4-6.7s-3.1 3.9-3.4 6.8v.4c0 1.9 1.5 3.5 3.5 3.5s3.5-1.5 3.5-3.5c-.1-.2-.1-.4-.2-.5zm-3.4 2.9c-1.3 0-2.4-1.1-2.4-2.4v-.3c.2-1.6 1.4-3.7 2.3-5.1 1 1.4 2.2 3.5 2.4 5.1v.3c.1 1.3-1 2.4-2.3 2.4z"/></symbol><symbol id="phone" viewBox="0 0 32 32"><path fill="#656565" d="M23.1 1.6H8.9c-.8 0-1.4.7-1.4 1.4v26c0 .8.6 1.4 1.4 1.4h14.2c.8 0 1.4-.6 1.4-1.4V3c0-.7-.6-1.4-1.4-1.4zm.4 27.4c0 .2-.2.4-.4.4H8.9c-.2 0-.4-.2-.4-.4v-5h14.9l.1 5zm0-6.1h-15v-17h14.9v17zm0-18.1h-15V3.1c0-.2.2-.4.4-.4h14.2c.2 0 .4.2.4.4v1.7z"/><path fill="#656565" d="M14.4 26.1h3.2v1.1h-3.2v-1.1z"/></symbol><symbol id="plane" viewBox="0 0 32 32"><path fill="#656565" d="M9.1 30.5l-1.3-6.3-6.3-1.4 1.3-2.5 5.8-.3c.3-.4 1-1.2 1.4-1.6l5.3-5.3-11-5.4L7 4.9l13.9 2.4 4.9-4.9c.6-.6 1.5-.9 2.6-.9.8 0 1.4.1 1.4.1l.3.1.1.3c.5 1.5.2 3.3-.7 4.2l-5 5L27.1 25l-2.8 2.8L19 16.9l-5 4.9c-.5.5-1.6 1.5-2 1.9l-.4 5.4-2.5 1.4zm-6-8.4l5.6 1.2 1.2 5.5.7-.4.4-5.3.2-.1s1.5-1.4 2.2-2l6-6 5.2 11 1.3-1.3-2.4-13.9 5.3-5.3c.5-.5.7-1.6.5-2.8-.2 0-.5-.1-.9-.1-.6 0-1.4.1-1.9.6l-5.3 5.3L7.4 6.1 6 7.4l11 5.4-6.3 6.3c-.5.5-1.4 1.7-1.4 1.7l-.2.2-5.7.3-.3.8z"/></symbol><symbol id="portfolio" viewBox="0 0 32 32"><path fill="none" stroke="#231F20" stroke-width="1.1" stroke-miterlimit="10" d="M3.8 7.8h24.6V27H3.8z"/><path fill="none" stroke="#231F20" stroke-width="1.1" stroke-miterlimit="10" d="M12.8 15.2h6.4v4.2h-6.4zM12.7 5.1h6.6v2.7h-6.6zM3.8 17.3h9M19.2 17.4l9.2-.1"/></symbol><symbol id="star-sroke" viewBox="0 0 32 32"><path fill="none" stroke="#283075" stroke-width=".956" stroke-miterlimit="10" d="M16 4.1l3 9.1h9.8L21 18.8l2.9 9.3-7.9-5.6-7.8 5.7 2.9-9.2-7.9-5.7 9.9-.1z"/></symbol><symbol id="star" viewBox="0 0 32 32"><path fill="#FFF" d="M19.4 12.8L16 2.4l-3.4 10.4h-11l8.9 6.4-3.4 10.4 8.9-6.4 8.9 6.4-3.4-10.4 8.9-6.4h-11zm1.1 6.7l2.4 7.3-6.9-5-6.9 5 2.6-8-.6-.5-6.2-4.5h8.5l2.6-8 2.6 8h8.5l-6.9 4.9.3.8z"/></symbol></svg>